Gallery: 

Scene #1 
http://imagedomino.com/?g=372860

Scene #2 
http://imagedomino.com/?g=136354

Scene #3 
http://imagedomino.com/?g=541418

Scene #4 
http://imagedomino.com/?g=767266

SERIE :    Relax He's My Step Dad

STUDIO :   Combat Zone

CATEGORIES :     Asian, Hardcore, Natural Tits

PORNSTAR :      Adriana Luna, Anna Skye, Manuel Ferrara, Melanie Masters, Rochelle Ryder

DESCRIPTION :     Sexy young step daughters willing to let step dad do to them what their mothers won't!

Format : Windows Media
File size : 2.89 GiB
Duration : 26mn 2s
Overall bit rate : 15.9 Mbps
Maximum Overall bit rate : 10.2 Mbps
Encoded date : UTC 1970-01-01 00:00:00.000
major_brand : isom
minor_version : 512
compatible_brands : isomiso2avc1mp41
creation_time : 1970-01-01 00:00:00
WM/EncodingSettings : Lavf52.93.0

Video
ID : 1
Format : WMV2
Codec ID : WMV2
Codec ID/Info : Windows Media Video 8
Description of the codec : wmv2
Duration : 26mn 2s
Bit rate : 15.1 Mbps
Width : 1 920 pixels
Height : 1 080 pixels
Display aspect ratio : 16:9
Frame rate : 29.970 fps
Bit depth : 8 bits
Bits/(Pixel*Frame) : 0.242
Stream size : 2.74 GiB (95%)

Audio
ID : 2
Format : WMA
Format version : Version 2
Codec ID : 161
Codec ID/Info : Windows Media Audio
Description of the codec : Windows Media Audio V8
Duration : 26mn 2s
Bit rate : 192 Kbps
Channel(s) : 2 channels
Sampling rate : 44.1 KHz
Bit depth : 16 bits
Stream size : 35.8 MiB (1%)
